<?xml version="1.0" standalone="no"?>
<!DOCTYPE svg PUBLIC "-//W3C//DTD SVG 20010904//EN"
 "http://www.w3.org/TR/2001/REC-SVG-20010904/DTD/svg10.dtd">
<svg version="1.0" xmlns="http://www.w3.org/2000/svg"
 width="500.000000pt" height="500.000000pt" viewBox="0 0 500.000000 500.000000"
 preserveAspectRatio="xMidYMid meet">
<metadata>
Created by potrace 1.11, written by Peter Selinger 2001-2013
</metadata>
<g transform="translate(0.000000,500.000000) scale(0.100000,-0.100000)"
fill="#000000" stroke="none">
<path d="M1935 4588 c-11 -7 -26 -18 -34 -26 -8 -7 -31 -25 -52 -38 -46 -28
-59 -67 -47 -138 8 -56 5 -65 -17 -46 -18 15 -20 -1 -3 -18 17 -17 -3 -34 -23
-19 -9 7 -16 16 -17 21 -1 17 -86 45 -132 44 l-45 -1 45 -6 c62 -10 110 -35
143 -76 26 -33 24 -52 -2 -21 -7 8 -26 14 -42 14 -17 -1 -35 4 -41 10 -7 7
-33 12 -58 12 -36 0 -48 -5 -60 -22 -8 -13 -14 -27 -15 -31 0 -5 -7 -14 -15
-20 -28 -21 -50 -61 -50 -89 0 -16 -6 -28 -12 -28 -33 -1 -90 -102 -90 -157 0
-26 -8 -29 -27 -10 -11 10 -11 8 -2 -10 6 -13 16 -23 21 -23 6 0 10 -7 10 -15
0 -8 -4 -15 -9 -15 -18 0 -19 -54 -1 -87 9 -18 20 -30 24 -26 3 3 6 2 6 -4 0
-6 -8 -14 -17 -17 -14 -6 -15 -9 -4 -16 12 -7 11 -13 -4 -37 -22 -32 -27 -129
-8 -141 8 -5 9 -13 3 -22 -25 -39 -2 -78 28 -48 16 16 28 2 12 -17 -8 -9 -10
-27 -6 -50 4 -20 7 -63 7 -95 1 -38 5 -63 13 -67 20 -12 42 -211 37 -330 -1
-7 -12 -13 -24 -13 -13 0 -32 -9 -43 -21 -19 -21 -18 -21 2 -37 12 -10 34 -27
50 -39 31 -25 21 -32 -10 -8 -24 18 -56 19 -57 3 -2 -20 -2 -21 6 -48 5 -19 4
-21 -4 -10 -19 27 -11 -4 14 -55 13 -27 25 -57 25 -65 0 -22 60 -213 70 -223
13 -14 22 44 9 59 -10 12 -9 13 5 8 10 -4 16 -17 16 -35 0 -17 7 -32 17 -38
21 -11 20 -16 27 154 2 66 6 131 9 145 2 14 5 39 6 55 2 20 5 25 9 15 4 -8 14
-16 22 -18 12 -3 13 -1 3 9 -18 18 -16 66 1 72 8 3 19 0 26 -7 8 -10 7 -15 -5
-20 -8 -3 -15 0 -15 6 0 6 -2 9 -5 6 -3 -2 2 -19 11 -37 14 -28 14 -35 3 -42
-10 -6 -11 -9 -1 -9 6 0 12 -5 12 -10 0 -6 -8 -10 -17 -8 -10 2 -18 -3 -17 -9
3 -39 5 -44 14 -38 6 3 10 -1 10 -9 0 -8 -4 -17 -9 -20 -8 -5 -24 -63 -26 -93
0 -6 -4 -15 -8 -19 -4 -4 -7 -12 -7 -18 0 -6 5 -5 12 2 14 14 32 16 24 3 -4
-5 0 -12 6 -14 8 -3 6 -6 -5 -6 -10 -1 -16 -5 -13 -10 4 -5 0 -11 -6 -14 -10
-4 -11 -7 0 -18 6 -7 12 -22 12 -32 0 -16 6 -18 30 -15 17 3 30 1 30 -4 0 -4
8 -8 18 -8 14 -1 13 -4 -7 -20 -13 -11 -18 -20 -11 -20 12 0 70 30 80 41 3 3
13 8 23 12 12 4 17 1 17 -10 0 -9 -3 -14 -6 -10 -4 3 -13 -1 -21 -9 -15 -14
-11 -28 8 -30 22 -3 23 -5 12 -12 -8 -5 -8 -15 3 -37 7 -16 13 -23 13 -15 -3
40 1 45 17 25 15 -19 16 -18 10 15 -6 38 5 67 23 56 6 -4 11 -2 11 4 0 7 8 9
19 5 11 -3 22 -1 26 5 3 5 15 10 26 10 10 0 19 5 19 10 0 10 -11 13 -40 11
-10 0 -11 1 -2 5 21 10 13 22 -18 29 -53 12 -40 20 28 17 43 -1 62 1 53 7 -8
5 -21 7 -29 3 -11 -4 -13 -1 -8 7 5 7 17 11 27 8 11 -3 19 -2 19 2 0 4 12 7
27 6 18 0 28 5 29 15 2 30 4 32 19 20 9 -8 15 -8 15 -2 0 6 9 10 20 9 11 -1
20 -5 20 -9 0 -5 14 -6 30 -3 17 3 30 2 30 -3 0 -4 9 -8 21 -9 11 -1 27 -7 35
-14 12 -9 12 -14 0 -31 -8 -11 -24 -27 -36 -35 -19 -13 -24 -13 -31 -2 -7 11
-9 11 -9 -2 0 -18 -72 -43 -121 -41 -35 1 -37 -9 -5 -24 16 -7 28 -8 34 -2 7
7 12 3 17 -10 3 -12 15 -24 26 -27 10 -4 19 -14 19 -23 0 -12 3 -13 12 -4 15
15 53 16 79 2 13 -7 25 -7 38 0 28 15 33 -10 7 -37 -12 -12 -32 -36 -46 -52
-14 -17 -31 -37 -37 -45 -12 -13 -34 -64 -34 -76 0 -3 -7 -12 -14 -20 -16 -18
-30 -68 -26 -92 1 -11 -7 -20 -23 -24 -14 -3 -26 -10 -26 -16 0 -5 -4 -7 -9
-4 -12 8 -54 -40 -57 -66 -1 -13 -3 -30 -4 -38 -1 -11 -4 -9 -10 5 -8 16 -9
13 -7 -15 1 -19 6 -33 11 -32 14 6 29 -27 19 -41 -5 -7 -10 -23 -11 -36 0 -13
-7 -30 -14 -38 -12 -11 -17 -11 -33 2 -14 11 -15 14 -5 13 8 -2 18 -7 22 -13
5 -6 8 -5 8 3 0 7 -8 16 -17 19 -23 9 -63 45 -63 58 0 6 -9 19 -21 28 -11 10
-18 25 -15 33 3 8 0 14 -7 13 -25 -3 -38 1 -32 11 3 6 -1 10 -9 10 -9 0 -16
-4 -16 -10 0 -5 -6 -10 -12 -10 -7 0 -1 11 14 24 27 24 27 24 5 30 -34 9 -56
6 -32 -4 18 -8 17 -9 -8 -9 -15 -1 -30 5 -33 13 -3 8 -13 17 -21 20 -12 5 -13
3 -6 -6 11 -13 27 -116 18 -106 -4 3 -15 28 -26 54 -17 42 -18 44 -13 14 4
-19 17 -59 30 -89 13 -29 24 -57 24 -60 0 -4 -17 -15 -37 -24 -21 -9 -67 -42
-103 -72 -39 -34 -81 -60 -105 -66 -86 -22 -192 -62 -264 -100 -60 -31 -81
-38 -108 -33 -20 4 -33 2 -33 -4 0 -13 -82 -31 -144 -30 -58 0 -73 -11 -56
-42 6 -12 9 -28 6 -36 -3 -8 1 -14 9 -14 10 0 15 -10 15 -27 0 -14 19 -64 42
-110 35 -69 46 -83 66 -83 13 0 22 -3 20 -7 -2 -5 -10 -25 -18 -46 -8 -20 -19
-37 -26 -37 -7 0 -14 -3 -17 -7 -2 -5 -2 -2 0 6 2 9 -4 12 -20 9 -20 -4 -23
-1 -19 14 3 12 -1 18 -11 18 -9 0 -23 10 -31 22 l-16 22 0 -29 c0 -16 -10 -39
-22 -52 l-21 -23 24 -1 c13 -1 31 -1 39 0 10 0 11 -1 3 -5 -19 -8 -16 -22 8
-29 11 -4 18 -12 16 -19 -3 -8 4 -11 24 -8 16 2 27 8 24 12 -8 12 5 38 21 44
12 5 14 -1 10 -27 -3 -17 -8 -59 -11 -91 -3 -33 -9 -64 -13 -70 -4 -6 -12 -29
-18 -51 -7 -22 -17 -56 -24 -75 -27 -75 -43 -117 -59 -155 -9 -21 -14 -47 -13
-57 2 -10 -2 -18 -7 -18 -6 0 -11 -10 -11 -22 0 -21 0 -21 18 -2 9 10 26 39
36 64 20 50 17 44 82 155 26 44 65 115 86 157 21 43 43 78 48 78 6 0 8 5 5 10
-4 6 10 44 30 85 30 59 35 78 26 89 -8 10 -9 16 -1 21 6 3 8 11 5 16 -4 5 -1
9 5 9 6 0 8 -10 4 -25 -3 -14 -4 -25 0 -25 7 0 40 61 40 75 1 6 11 21 23 34
26 28 19 50 -8 25 -37 -33 -19 -2 26 44 91 95 126 143 120 163 -4 12 -2 19 6
19 7 0 10 3 6 6 -7 7 6 24 52 67 19 18 48 45 63 60 22 22 32 26 46 18 9 -6 11
-11 5 -11 -15 0 -17 -36 -3 -45 14 -8 3 -25 -16 -25 -8 0 -12 5 -9 10 3 5 1
10 -4 10 -14 0 -14 -33 0 -47 8 -8 2 -14 -26 -22 -45 -12 -107 -73 -109 -107
0 -13 -6 -26 -13 -28 -6 -3 -17 -15 -23 -27 -8 -15 -9 -19 -1 -15 6 4 11 4 11
-1 0 -4 -20 -21 -45 -38 -41 -27 -59 -55 -36 -55 16 0 24 -85 11 -110 -18 -34
-70 -221 -70 -252 0 -17 -18 -47 -51 -87 -28 -34 -46 -61 -41 -61 5 0 28 22
52 50 l42 49 22 -26 c14 -16 35 -27 53 -29 17 -1 39 -5 50 -8 17 -5 20 -2 17
19 -1 14 -8 33 -16 42 -12 15 -10 16 15 9 16 -4 27 -2 27 4 0 5 -4 10 -10 10
-5 0 -10 5 -10 10 0 6 12 10 27 10 26 0 26 1 7 15 -18 14 -18 14 4 8 27 -7 29
8 3 24 -16 10 -18 18 -11 43 5 16 18 43 29 59 12 16 21 34 21 40 0 7 6 22 14
34 20 30 57 171 47 175 -10 3 45 185 77 254 12 26 22 51 22 56 0 5 7 15 15 22
22 18 19 3 -16 -92 -16 -46 -37 -103 -45 -128 -19 -56 -11 -110 17 -117 16 -4
20 -13 18 -37 -2 -42 10 -69 29 -61 8 3 21 0 29 -7 12 -10 18 -8 31 10 19 24
56 21 66 -4 3 -8 17 -14 31 -14 34 0 65 -17 65 -35 0 -8 4 -15 8 -15 5 0 34
-38 65 -84 66 -96 89 -120 80 -84 -3 13 -13 29 -22 37 -14 12 -13 13 12 9 15
-3 27 -1 27 3 0 5 -6 9 -12 9 -9 0 -8 3 2 9 8 6 17 8 21 5 4 -2 10 4 13 13 3
10 4 4 3 -13 -2 -18 2 -31 9 -31 6 0 9 9 6 19 -2 10 1 18 7 18 6 0 11 -4 11
-10 0 -5 8 -6 17 -3 14 5 14 8 2 11 -14 5 -29 21 -29 34 0 3 14 0 30 -8 17 -9
30 -20 30 -25 0 -5 5 -9 10 -9 6 0 3 11 -6 25 -10 15 -12 25 -5 25 6 0 11 7
11 16 0 8 -4 13 -8 10 -5 -3 -9 9 -9 26 0 18 -5 34 -11 36 -18 6 -14 43 5 58
13 9 22 9 30 2 13 -10 18 0 14 27 -1 6 4 3 11 -5 7 -9 21 -14 31 -12 24 5 21
22 -4 22 -16 0 -19 4 -14 23 5 17 4 19 -4 7 -9 -13 -12 -12 -25 5 -9 11 -16
24 -16 29 0 4 -9 6 -20 3 -24 -6 -25 -3 -5 27 15 23 15 24 -10 24 -14 0 -25
-5 -25 -10 0 -5 -5 -6 -11 -3 -7 5 -5 13 5 24 20 22 21 38 2 22 -12 -10 -14
-9 -10 6 7 26 87 26 92 0 2 -9 12 -17 23 -17 11 0 22 -7 26 -16 3 -8 12 -13
19 -10 8 3 14 -1 14 -11 0 -12 3 -13 14 -4 11 9 16 9 22 0 5 -8 3 -10 -7 -4
-10 6 -11 5 -4 -3 16 -17 117 -34 129 -22 7 7 1 10 -18 10 -22 0 -27 4 -22 16
4 11 2 15 -8 11 -10 -4 -14 0 -13 14 1 10 4 19 7 19 3 0 6 14 7 30 1 17 -2 30
-7 30 -6 0 -10 7 -10 15 0 13 11 19 31 17 3 -1 5 9 4 21 -3 29 5 47 19 47 6 0
24 14 39 32 18 22 30 29 34 21 2 -7 10 -13 16 -13 8 0 8 3 0 11 -16 16 -4 53
12 39 10 -8 15 -5 21 12 3 13 11 26 17 30 6 4 -1 10 -15 13 -33 8 -64 40 -49
50 6 3 15 3 21 0 18 -11 50 -14 55 -4 4 5 -3 9 -14 9 -12 0 -21 5 -21 10 0 13
-22 13 -57 -1 -20 -7 -24 -12 -14 -18 16 -10 10 -47 -7 -44 -6 2 -26 -6 -43
-16 -17 -11 -38 -17 -45 -14 -9 3 -12 0 -9 -9 3 -8 -2 -21 -12 -30 -22 -18
-103 -31 -103 -16 0 6 -8 17 -17 24 -17 13 -17 13 0 14 9 0 17 5 17 11 0 5 -4
8 -9 4 -5 -3 -12 -1 -16 5 -3 5 -1 10 4 10 16 0 13 16 -4 34 -20 19 -19 21 11
49 22 21 24 28 15 46 -8 14 -8 21 -1 21 5 0 10 -5 10 -12 0 -6 8 -4 19 6 11
10 25 15 31 11 16 -10 202 -7 209 3 3 5 16 12 29 16 12 4 22 11 22 16 0 4 10
10 23 13 12 3 48 12 80 21 56 16 83 14 72 -4 -6 -9 37 0 45 10 12 15 93 50
115 50 14 0 25 5 25 10 0 13 -36 13 -59 0 -10 -5 -49 -14 -87 -20 -37 -6 -74
-16 -82 -22 -7 -6 -34 -12 -60 -14 -26 -1 -60 -5 -76 -9 -16 -4 -31 -4 -35 2
-13 20 -109 37 -201 36 -96 -2 -165 11 -154 28 3 5 13 5 24 -1 27 -14 72 -9
93 12 9 9 24 15 32 12 8 -4 15 -2 15 4 0 9 38 20 83 25 9 1 17 5 17 9 0 8 -16
12 -32 9 -5 0 -8 4 -8 10 0 5 10 9 23 7 18 -2 21 1 19 20 -2 16 2 22 17 22 11
0 25 9 31 20 9 17 6 23 -22 40 -18 11 -56 30 -85 42 -29 13 -53 29 -53 37 0
12 -3 11 -17 -1 -18 -15 -43 -14 -43 2 0 17 65 17 95 0 33 -19 57 -16 49 5 -4
10 0 13 15 10 12 -2 19 0 16 4 -2 5 5 11 16 14 12 3 18 10 14 16 -3 6 2 11 12
12 10 0 13 3 6 6 -15 6 -17 33 -3 33 6 0 10 -4 10 -10 0 -12 45 31 52 51 4 9
-2 22 -13 30 -10 7 -19 21 -19 31 0 9 -5 20 -10 23 -6 4 -8 11 -5 16 3 5 0 6
-8 3 -11 -4 -14 6 -13 40 0 25 4 42 8 40 4 -3 8 0 8 5 0 6 -5 11 -10 11 -7 0
-7 6 -1 18 11 20 5 51 -16 92 -7 14 -13 32 -13 40 0 8 -9 30 -20 48 -11 18
-18 37 -15 43 4 5 1 9 -5 9 -6 0 -8 4 -5 10 3 5 -5 12 -19 16 -14 3 -28 15
-31 25 -4 10 -15 19 -27 19 -22 0 -128 60 -128 72 0 5 -13 8 -29 8 -17 0 -32
4 -35 8 -3 5 -22 9 -43 10 -27 1 -44 9 -63 31 -14 16 -34 31 -45 34 -19 4 -19
5 -1 6 20 1 20 1 0 16 -19 14 -18 14 2 9 15 -4 23 0 28 13 3 10 9 25 12 33 4
8 -1 6 -10 -5 -14 -18 -15 -18 -16 -2 0 9 -4 17 -10 17 -5 0 -10 5 -10 11 0 6
7 9 15 5 8 -3 25 -1 37 4 13 5 18 9 11 9 -16 1 -12 41 4 41 7 0 13 5 13 10 0
6 5 10 11 10 5 0 7 -4 4 -10 -3 -5 -1 -10 4 -10 6 0 11 5 11 10 0 6 10 10 21
10 12 0 27 7 33 16 7 9 24 17 38 17 14 1 24 5 21 9 -5 10 22 50 29 43 3 -3 11
2 19 11 12 15 11 16 -11 9 -14 -4 -26 -12 -28 -16 -7 -17 -28 -9 -29 11 -1 11
4 20 12 20 12 0 12 6 4 26 -9 24 -8 26 6 14 14 -11 16 -11 13 1 -3 16 -39 39
-50 33 -5 -3 -18 2 -30 10 -12 9 -32 16 -44 16 -12 0 -24 5 -26 11 -3 8 -11 5
-22 -7 -18 -17 -19 -17 -34 2 -12 15 -14 16 -9 2 8 -22 -9 -33 -17 -12 -3 9
-15 14 -28 12 -16 -2 -24 3 -26 16 -3 14 0 17 11 13 10 -4 18 1 22 13 5 15 11
17 30 10 18 -7 25 -5 29 7 5 11 2 14 -11 9 -14 -6 -15 -5 -6 5 9 9 15 9 27 0
19 -16 63 -4 69 20 4 13 14 19 36 19 24 0 34 7 46 31 12 21 21 29 33 25 13 -5
12 -2 -3 9 -18 14 -18 16 -2 32 11 12 17 13 17 5 0 -7 5 -10 10 -7 6 4 8 11 5
16 -3 5 2 6 11 2 12 -4 15 -3 10 5 -4 7 -1 12 8 12 23 0 31 21 12 32 -13 8
-15 13 -5 24 6 7 15 11 21 8 13 -8 40 17 34 33 -4 10 1 12 20 7 13 -4 45 -1
70 6 39 11 47 11 63 -4 18 -16 21 -16 44 -1 14 8 29 15 33 14 5 -1 16 1 24 4
8 3 42 8 75 11 33 3 71 7 85 9 14 2 38 0 55 -4 18 -6 33 -5 39 1 12 12 46 13
46 3 0 -13 124 -7 128 6 5 16 29 14 36 -4 3 -8 16 -15 30 -15 14 0 28 -5 31
-10 4 -6 16 -10 28 -9 48 4 60 0 54 -21 -3 -13 0 -20 9 -20 8 0 14 -4 14 -10
0 -5 7 -10 15 -10 9 0 15 -9 15 -24 0 -13 5 -26 12 -28 6 -2 13 -19 14 -37 1
-18 7 -38 12 -43 5 -5 7 -36 5 -69 -4 -40 -2 -59 6 -59 6 0 11 -5 11 -11 0 -6
-7 -9 -15 -5 -18 6 -20 -5 -4 -21 6 -6 12 -39 14 -73 1 -34 6 -65 11 -68 5 -4
10 -15 12 -26 2 -13 0 -16 -10 -10 -7 5 -4 -5 6 -21 69 -105 90 -178 121 -435
9 -74 20 -153 24 -175 7 -38 8 -39 19 -17 10 16 10 45 3 115 -11 113 -9 143 8
139 9 -2 12 4 8 18 -3 11 -1 23 4 26 5 3 6 16 3 28 -5 21 -3 23 23 18 27 -5
28 -4 11 15 -21 23 -23 37 -5 28 6 -4 3 1 -8 10 -18 14 -20 26 -17 103 3 121
10 213 18 242 4 14 7 81 8 150 2 124 19 219 41 221 5 1 21 1 35 1 25 -1 25 -1
2 6 -13 4 -23 10 -23 15 1 4 1 13 1 20 0 9 2 9 9 -1 6 -10 10 -9 14 7 3 12 0
24 -6 29 -21 13 -38 50 -26 58 6 3 8 13 4 22 -4 11 8 29 36 54 23 21 35 36 26
32 -18 -7 -24 11 -7 21 6 3 10 14 10 23 0 13 -6 10 -26 -11 -39 -42 -69 -50
-107 -30 -18 9 -27 18 -19 21 7 2 24 -4 38 -13 19 -12 25 -13 22 -4 -3 8 -29
22 -59 33 -61 21 -72 32 -58 59 8 14 13 16 25 6 19 -15 18 0 -1 21 -11 12 -12
24 -6 48 7 25 6 36 -7 51 -18 20 -152 93 -189 103 -14 4 -23 14 -23 25 0 10
-13 33 -29 51 -23 24 -38 32 -64 32 -21 0 -37 6 -40 14 -4 10 -24 16 -58 18
-49 3 -53 5 -60 32 -5 18 -4 35 2 43 6 7 9 20 5 28 -8 21 -68 45 -97 39 -13
-2 -43 -2 -67 1 -36 5 -41 9 -31 21 7 9 8 14 1 14 -6 0 -14 -9 -17 -20 -3 -11
-13 -20 -21 -20 -10 0 -13 6 -10 18 10 31 -25 53 -80 51 -27 -1 -76 2 -110 6
-49 6 -72 4 -120 -13 -94 -32 -123 -36 -130 -17 -21 53 -293 101 -359 63z
m335 -73 c27 -33 -1 -26 -37 10 -37 36 -38 36 -7 21 17 -8 36 -22 44 -31z
m-93 19 c-3 -3 -12 -4 -19 -1 -8 3 -5 6 6 6 11 1 17 -2 13 -5z m778 -84 c3 -5
1 -10 -4 -10 -6 0 -11 5 -11 10 0 6 2 10 4 10 3 0 8 -4 11 -10z m-1425 -255
c-7 -8 -17 -15 -23 -15 -5 0 -2 9 8 20 21 23 35 19 15 -5z m1848 -95 c17 -11
32 -23 33 -27 0 -5 2 -18 5 -30 2 -13 -1 -23 -8 -23 -18 0 -47 31 -42 44 3 7
-3 19 -12 27 -11 9 -19 10 -21 4 -4 -13 -71 -7 -80 8 -4 7 6 8 31 4 22 -3 34
-2 31 4 -11 16 29 10 63 -11z m-2001 -475 c-4 -8 -11 -15 -17 -15 -7 0 -7 6 0
21 13 23 26 19 17 -6z m783 -100 c0 -8 -7 -15 -15 -15 -26 0 -18 20 13 29 1 1
2 -6 2 -14z m-20 -35 c0 -5 -2 -10 -4 -10 -3 0 -8 5 -11 10 -3 6 -1 10 4 10 6
0 11 -4 11 -10z m-264 -137 c-11 -11 -19 6 -11 24 8 17 8 17 12 0 3 -10 2 -21
-1 -24z m254 -53 c8 -5 11 -10 5 -10 -5 0 -17 5 -25 10 -8 5 -10 10 -5 10 6 0
17 -5 25 -10z m-482 -310 c-7 -10 -14 -18 -15 -16 -6 6 9 36 18 36 5 0 4 -9
-3 -20z m-38 -44 c12 -16 12 -18 1 -11 -10 5 -12 4 -7 -3 8 -13 32 -16 39 -4
2 4 2 2 1 -5 -2 -7 8 -21 22 -32 25 -19 19 -36 -9 -25 -8 3 -18 1 -22 -5 -4
-7 0 -8 11 -4 12 4 15 3 10 -5 -4 -7 0 -19 8 -28 9 -9 13 -20 10 -26 -4 -6
-11 -3 -17 8 -24 46 -63 57 -77 22 -7 -19 -9 -15 -9 23 -1 25 5 51 11 57 10
10 10 15 -2 22 -10 7 -11 10 -2 10 6 0 11 3 11 8 -2 11 1 26 4 21 1 -2 9 -13
17 -23z m338 -140 c7 -4 19 -5 27 -2 14 5 143 -28 154 -40 6 -6 -7 -4 -75 12
-19 5 -25 4 -20 -5 7 -11 -59 -16 -181 -15 -24 0 -43 -3 -43 -6 0 -4 -12 -5
-26 -2 -23 4 -25 2 -20 -16 5 -15 2 -22 -14 -27 -11 -3 -20 -12 -20 -18 0 -7
-4 -6 -10 3 -7 10 -12 12 -17 4 -7 -10 -20 -11 -65 -5 -13 2 5 41 22 46 12 4
16 12 13 25 -3 11 0 20 6 20 6 0 11 -6 11 -14 0 -17 35 -31 51 -20 8 4 7 9 -2
15 -9 6 0 9 26 7 23 -1 46 1 52 5 6 4 14 1 16 -5 4 -9 6 -10 6 -1 1 6 -3 14
-9 18 -5 3 -7 11 -4 18 5 14 101 16 122 3z m-293 -26 c3 -5 1 -10 -4 -10 -6 0
-11 5 -11 10 0 6 2 10 4 10 3 0 8 -4 11 -10z m292 -102 c1 -12 11 -34 23 -50
15 -21 17 -28 7 -28 -8 0 -20 7 -27 15 -7 8 -17 15 -23 15 -6 0 -18 7 -28 16
-17 16 -17 17 4 35 29 24 42 24 44 -3z m143 12 c0 -5 -4 -10 -10 -10 -5 0 -10
5 -10 10 0 6 5 10 10 10 6 0 10 -4 10 -10z m84 -19 l28 -29 -28 -15 c-16 -8
-45 -18 -64 -22 l-35 -7 21 23 c12 13 24 36 28 52 8 34 16 34 50 -2z m-708
-30 c3 -23 1 -48 -4 -57 -7 -12 -10 3 -11 46 -1 70 8 76 15 11z m304 29 c0 -5
-8 -10 -17 -10 -15 0 -16 2 -3 10 19 12 20 12 20 0z m380 -90 c0 -5 -5 -10
-11 -10 -5 0 -7 5 -4 10 3 6 8 10 11 10 2 0 4 -4 4 -10z m-683 -42 c-3 -8 -6
-5 -6 6 -1 11 2 17 5 13 3 -3 4 -12 1 -19z m328 -29 c5 -5 1 -9 -12 -9 -12 0
-24 4 -27 9 -3 4 -18 6 -33 4 -22 -4 -25 -2 -13 6 16 12 68 5 85 -10z m81 -1
c4 -5 -9 -8 -29 -8 -20 0 -37 3 -37 8 0 4 13 7 29 7 16 0 33 -3 37 -7z m-128
-51 c-28 -8 -44 -24 -34 -34 3 -3 12 0 21 7 8 7 15 8 15 2 0 -16 -29 -35 -45
-28 -18 6 -19 24 -5 62 8 21 14 24 22 16 17 -17 28 -15 21 5 -5 13 -3 13 13
-3 19 -19 19 -19 -8 -27z m74 -4 c-5 -25 -6 -25 -13 -8 -4 12 -8 14 -8 6 -1
-8 -3 -12 -6 -9 -9 9 6 38 20 38 8 0 10 -9 7 -27z m-136 4 c4 -4 2 -7 -5 -7
-6 0 -21 -9 -33 -20 -28 -26 -35 -18 -12 13 18 24 36 29 50 14z m94 -28 c0 -6
-4 -7 -10 -4 -5 3 -10 11 -10 16 0 6 5 7 10 4 6 -3 10 -11 10 -16z m305 -49
c-8 -12 8 -13 21 -1 5 5 18 5 29 1 19 -7 18 -8 -7 -20 -22 -10 -30 -10 -43 0
-13 11 -12 30 1 30 3 0 2 -4 -1 -10z m-11 -515 c8 -8 19 -15 25 -15 6 0 11 -3
11 -7 0 -11 -102 -44 -109 -36 -4 3 -1 8 6 10 7 2 10 10 7 17 -5 14 20 46 36
46 5 0 15 -7 24 -15z m11 -125 c-5 -16 -12 -19 -28 -14 -28 8 -30 11 -22 23
11 18 35 13 28 -6 -4 -11 -3 -14 5 -9 7 4 12 14 12 23 0 9 3 14 6 10 3 -3 3
-15 -1 -27z m-393 -102 c-7 -7 -12 -8 -12 -2 0 6 3 14 7 17 3 4 9 5 12 2 2 -3
-1 -11 -7 -17z m125 -45 c28 -29 30 -30 63 -32 24 -1 27 -21 4 -21 -15 0 -15
-2 1 -26 l17 -26 -32 23 c-28 21 -63 62 -84 97 -12 20 1 14 31 -15z m283 -79
c0 -8 -4 -12 -10 -9 -5 3 -10 10 -10 16 0 5 5 9 10 9 6 0 10 -7 10 -16z m-130
-39 c0 -7 8 -15 19 -18 12 -3 19 -13 19 -31 0 -21 -3 -24 -14 -15 -7 6 -16 20
-20 31 -3 11 -11 17 -18 15 -7 -3 -13 0 -13 6 0 7 -3 23 -8 37 -8 25 -8 25 14
6 11 -11 21 -25 21 -31z m-45 5 c3 -5 -1 -10 -10 -10 -9 0 -13 5 -10 10 3 6 8
10 10 10 2 0 7 -4 10 -10z m-620 -10 c-3 -5 -12 -10 -18 -10 -7 0 -6 4 3 10
19 12 23 12 15 0z m345 -77 c-16 -53 -40 -83 -40 -50 0 21 40 107 49 107 5 0
1 -26 -9 -57z m-430 35 c0 -14 -53 -53 -85 -63 -13 -5 -5 8 22 34 43 42 63 51
63 29z m350 -4 c0 -8 -5 -12 -10 -9 -6 4 -8 11 -5 16 9 14 15 11 15 -7z m158
-14 c12 -20 12 -21 -13 -4 -28 18 -31 24 -12 24 7 0 18 -9 25 -20z m-18 -35
c10 -12 10 -15 -4 -15 -9 0 -16 7 -16 15 0 8 2 15 4 15 2 0 9 -7 16 -15z m300
11 c0 -2 -7 -7 -16 -10 -8 -3 -12 -2 -9 4 6 10 25 14 25 6z m46 -22 c-4 -16
-3 -23 3 -20 18 11 21 -11 4 -25 -9 -8 -14 -9 -10 -3 4 7 0 14 -8 18 -18 7
-19 28 -3 44 18 18 21 15 14 -14z m-345 -34 c25 -14 24 -28 -3 -26 -12 1 -22
8 -24 19 -3 20 0 21 27 7z m-568 -7 c-7 -2 -13 -11 -13 -19 0 -8 -4 -14 -10
-14 -12 0 -12 3 -4 24 3 9 14 16 23 15 10 0 11 -2 4 -6z m-39 -39 c3 -8 2 -12
-4 -9 -6 3 -10 10 -10 16 0 14 7 11 14 -7z m150 -9 c-4 -8 -12 -15 -19 -15 -7
0 -18 -7 -25 -15 -7 -8 -16 -12 -21 -9 -12 7 21 41 46 47 11 2 21 5 22 6 1 0
0 -6 -3 -14z m333 -7 c-3 -8 -6 -5 -6 6 -1 11 2 17 5 13 3 -3 4 -12 1 -19z
m13 -88 c0 -5 -4 -10 -10 -10 -5 0 -10 5 -10 10 0 6 5 10 10 10 6 0 10 -4 10
-10z m-405 -40 c-3 -5 -10 -10 -16 -10 -5 0 -9 5 -9 10 0 6 7 10 16 10 8 0 12
-4 9 -10z m5 -40 c0 -5 -5 -10 -11 -10 -5 0 -7 5 -4 10 3 6 8 10 11 10 2 0 4
-4 4 -10z"/>
<path d="M1580 2891 c0 -6 4 -13 10 -16 6 -3 7 1 4 9 -7 18 -14 21 -14 7z"/>
<path d="M1613 2878 c-2 -16 1 -18 10 -9 7 7 8 14 1 21 -6 6 -10 2 -11 -12z"/>
<path d="M2042 1859 c2 -7 10 -15 17 -17 8 -3 12 1 9 9 -2 7 -10 15 -17 17 -8
3 -12 -1 -9 -9z"/>
<path d="M2435 3690 c-3 -5 -1 -10 5 -10 6 0 8 -5 4 -12 -4 -7 -3 -8 4 -4 6 4
9 13 5 21 -6 18 -10 19 -18 5z"/>
<path d="M2280 3600 c0 -5 5 -10 10 -10 6 0 10 5 10 10 0 6 -4 10 -10 10 -5 0
-10 -4 -10 -10z"/>
<path d="M2170 3470 c0 -5 5 -10 11 -10 5 0 7 5 4 10 -3 6 -8 10 -11 10 -2 0
-4 -4 -4 -10z"/>
<path d="M2040 3400 c-18 -12 -2 -12 25 0 13 6 15 9 5 9 -8 0 -22 -4 -30 -9z"/>
<path d="M1990 3380 c-9 -6 -10 -10 -3 -10 6 0 15 5 18 10 8 12 4 12 -15 0z"/>
<path d="M2200 3174 c0 -8 5 -12 10 -9 6 4 8 11 5 16 -9 14 -15 11 -15 -7z"/>
<path d="M2158 3128 c8 -8 17 -8 34 0 22 10 21 11 -11 11 -27 1 -32 -2 -23
-11z"/>
<path d="M2125 3120 c3 -5 8 -10 11 -10 2 0 4 5 4 10 0 6 -5 10 -11 10 -5 0
-7 -4 -4 -10z"/>
<path d="M2906 2890 c-48 -17 -76 -33 -102 -57 -7 -7 -19 -13 -27 -13 -8 0
-17 -7 -21 -15 -3 -8 -17 -20 -31 -25 -14 -5 -25 -14 -25 -20 0 -5 -7 -10 -15
-10 -8 0 -15 -3 -16 -7 0 -5 -2 -16 -4 -25 -2 -10 1 -18 6 -18 5 0 9 -9 9 -20
0 -11 4 -20 9 -20 14 0 20 -50 6 -58 -19 -11 0 -50 30 -64 14 -6 25 -14 25
-17 0 -3 19 -6 43 -5 86 2 89 3 83 20 -5 13 -1 15 18 10 15 -4 28 0 36 9 6 7
17 12 25 9 20 -8 27 13 9 30 -13 14 -13 16 -1 16 9 0 27 14 42 32 21 24 25 38
21 61 -4 21 -2 28 7 24 45 -20 67 -34 67 -44 0 -14 -61 -63 -78 -63 -7 0 -12
-4 -12 -10 0 -13 27 -13 35 0 11 17 87 50 117 50 15 0 28 4 28 9 0 21 -44 61
-83 75 -84 31 -240 39 -311 16 -16 -6 -31 -9 -33 -7 -6 7 81 46 112 50 17 2
72 18 124 34 86 27 93 31 73 42 -12 6 -22 10 -22 7 0 -3 -16 2 -35 10 -42 17
-47 17 -109 -6z m-159 -152 c-3 -8 -6 -5 -6 6 -1 11 2 17 5 13 3 -3 4 -12 1
-19z m238 -28 c3 -5 1 -10 -4 -10 -6 0 -11 5 -11 10 0 6 2 10 4 10 3 0 8 -4
11 -10z m-125 -21 c0 -11 4 -29 10 -39 8 -15 6 -17 -13 -13 -25 7 -47 22 -47
34 0 11 29 39 41 39 5 0 9 -9 9 -21z m75 -90 c11 -16 1 -19 -13 -3 -7 8 -8 14
-3 14 5 0 13 -5 16 -11z m-28 -31 c-3 -8 -6 -5 -6 6 -1 11 2 17 5 13 3 -3 4
-12 1 -19z"/>
<path d="M3519 2824 c-13 -12 -14 -23 -6 -60 6 -24 13 -44 16 -44 11 0 30 77
24 98 -6 26 -13 27 -34 6z"/>
<path d="M1580 2634 c0 -8 5 -12 10 -9 6 3 10 10 10 16 0 5 -4 9 -10 9 -5 0
-10 -7 -10 -16z"/>
<path d="M1943 2435 c4 -9 7 -19 7 -21 0 -2 7 -4 15 -4 22 0 18 18 -7 31 -18
10 -20 9 -15 -6z"/>
<path d="M1605 2379 c-4 -6 -5 -13 -2 -16 7 -7 27 6 27 18 0 12 -17 12 -25 -2z"/>
<path d="M1913 2359 c-1 -11 3 -19 8 -19 6 0 8 4 4 9 -3 5 3 11 12 13 16 3 15
5 -2 9 -16 5 -21 1 -22 -12z"/>
<path d="M1970 2370 c0 -11 40 -50 52 -50 12 0 -23 48 -39 54 -7 3 -13 1 -13
-4z"/>
<path d="M1480 2355 c0 -8 2 -15 4 -15 2 0 6 7 10 15 3 8 1 15 -4 15 -6 0 -10
-7 -10 -15z"/>
<path d="M1865 2360 c3 -5 11 -10 16 -10 6 0 7 5 4 10 -3 6 -11 10 -16 10 -6
0 -7 -4 -4 -10z"/>
<path d="M1516 2345 c-3 -8 -1 -15 3 -15 5 0 11 7 15 15 3 8 1 15 -3 15 -5 0
-11 -7 -15 -15z"/>
<path d="M1695 2340 c-10 -12 -13 -20 -7 -20 7 0 12 -11 12 -25 0 -14 -4 -25
-8 -25 -5 0 -9 -6 -9 -14 0 -10 9 -13 26 -11 14 1 37 4 51 4 25 2 25 2 3 11
-13 5 -23 16 -23 24 0 7 -7 16 -15 20 -18 6 -20 33 -3 38 8 3 9 6 1 11 -6 4
-18 -2 -28 -13z m40 -70 c3 -5 1 -10 -4 -10 -6 0 -11 5 -11 10 0 6 2 10 4 10
3 0 8 -4 11 -10z"/>
<path d="M1720 2319 c0 -5 5 -7 10 -4 6 3 10 8 10 11 0 2 -4 4 -10 4 -5 0 -10
-5 -10 -11z"/>
<path d="M1524 2275 c3 -59 24 -83 24 -28 1 44 -6 73 -17 73 -5 0 -8 -20 -7
-45z"/>
<path d="M2676 2222 c-2 -4 -1 -14 5 -22 7 -12 9 -10 9 8 0 23 -5 28 -14 14z"/>
<path d="M2890 2169 c0 -5 5 -7 10 -4 6 3 10 8 10 11 0 2 -4 4 -10 4 -5 0 -10
-5 -10 -11z"/>
<path d="M1726 2142 c-3 -6 -1 -14 5 -17 14 -9 20 -2 10 14 -6 8 -11 9 -15 3z"/>
<path d="M2945 2060 c-3 -5 -1 -10 4 -10 6 0 11 5 11 10 0 6 -2 10 -4 10 -3 0
-8 -4 -11 -10z"/>
<path d="M1740 2030 c0 -13 18 -22 24 -11 3 5 -1 11 -9 15 -8 3 -15 1 -15 -4z"/>
<path d="M2967 2024 c6 -22 71 -79 79 -71 6 6 -9 22 -58 66 -23 20 -26 21 -21
5z"/>
<path d="M1730 1981 c0 -5 5 -13 10 -16 6 -3 10 -2 10 4 0 5 -4 13 -10 16 -5
3 -10 2 -10 -4z"/>
<path d="M3187 1588 c-32 -36 -52 -71 -63 -108 -9 -30 -22 -58 -28 -62 -6 -4
-8 -8 -4 -8 12 0 -33 -92 -73 -150 -20 -30 -60 -77 -88 -105 -43 -42 -53 -48
-62 -35 -9 12 -10 12 -5 -3 7 -23 -132 -170 -214 -225 -30 -20 -71 -50 -91
-65 -22 -17 -78 -39 -145 -58 -212 -60 -336 -102 -341 -115 -3 -8 6 -47 20
-86 15 -40 29 -87 32 -104 3 -17 26 -57 50 -89 24 -33 41 -63 38 -69 -4 -5
-13 0 -22 11 -16 19 -41 20 -41 1 0 -5 14 -23 30 -40 27 -26 31 -28 36 -11 4
10 29 65 56 123 28 58 68 148 90 200 22 52 49 105 61 117 22 21 184 93 211 93
18 0 75 29 104 54 14 12 72 66 129 121 89 85 110 100 139 101 19 1 44 10 56
20 12 11 18 13 14 7 -4 -7 -4 -13 -1 -13 10 0 40 33 41 44 1 27 45 142 106
276 23 50 36 187 21 214 -8 14 -16 8 -56 -36z m51 -8 c-2 -30 -12 -38 -23 -20
-3 6 -1 10 4 10 6 0 11 9 11 20 0 11 2 20 5 20 3 0 4 -13 3 -30z m-79 -272
c-17 -40 -51 -95 -75 -123 -24 -27 -44 -53 -44 -58 0 -4 -4 -5 -10 -2 -5 3
-10 0 -10 -8 0 -8 -7 -18 -16 -21 -17 -7 -11 8 18 40 38 42 149 220 155 249 5
19 8 24 11 13 2 -9 -11 -50 -29 -90z"/>
<path d="M2520 1540 c0 -5 7 -10 16 -10 8 0 12 5 9 10 -3 6 -10 10 -16 10 -5
0 -9 -4 -9 -10z"/>
<path d="M1400 1370 c-9 -6 -10 -10 -3 -10 6 0 15 5 18 10 8 12 4 12 -15 0z"/>
<path d="M805 1270 c-4 -6 -13 -9 -21 -6 -8 3 -11 0 -7 -10 3 -7 9 -14 13 -14
11 0 34 30 27 36 -3 3 -8 0 -12 -6z"/>
<path d="M3344 1266 c-35 -16 -66 -84 -84 -188 -6 -35 -15 -74 -20 -88 -5 -14
-12 -43 -15 -65 -21 -161 -25 -210 -31 -360 -5 -122 -4 -143 10 -154 14 -12
16 -11 10 5 -7 19 -7 19 14 0 12 -11 25 -16 30 -12 4 4 7 92 7 195 0 123 4
193 11 202 6 8 12 21 12 29 1 8 4 44 7 80 l6 65 -19 -24 c-29 -36 -34 -12 -16
68 11 47 23 75 34 81 21 11 50 64 50 91 0 10 9 34 20 54 22 39 19 40 -26 21z"/>
<path d="M3631 1184 c0 -11 3 -14 6 -6 3 7 2 16 -1 19 -3 4 -6 -2 -5 -13z"/>
<path d="M3621 1144 c0 -11 3 -14 6 -6 3 7 2 16 -1 19 -3 4 -6 -2 -5 -13z"/>
<path d="M418 1128 c-2 -6 8 -23 23 -38 46 -46 64 -125 64 -284 0 -77 1 -132
3 -123 2 9 10 17 18 17 16 0 19 -16 4 -25 -5 -3 -10 -21 -10 -38 0 -18 -7 -41
-15 -51 -8 -11 -15 -32 -15 -46 0 -15 -4 -40 -10 -56 -5 -16 -21 -105 -35
-199 -14 -93 -30 -195 -35 -224 -5 -30 -7 -57 -4 -60 9 -9 24 23 24 54 1 67
62 389 99 521 22 78 42 165 45 194 3 29 7 55 10 58 3 3 1 11 -5 19 -8 9 -8 13
-1 13 11 0 14 14 27 109 5 39 4 43 -10 31 -13 -11 -16 -11 -13 0 2 7 -8 16
-21 19 -14 4 -27 13 -29 20 -3 8 0 11 7 7 15 -9 14 -5 -6 34 -15 30 -17 32
-29 16 -12 -17 -40 -13 -29 4 3 4 3 14 0 22 -6 15 -53 20 -57 6z"/>
<path d="M2230 1129 c0 -5 5 -7 10 -4 6 3 10 8 10 11 0 2 -4 4 -10 4 -5 0 -10
-5 -10 -11z"/>
<path d="M3680 1131 c0 -5 5 -13 10 -16 6 -3 10 -2 10 4 0 5 -4 13 -10 16 -5
3 -10 2 -10 -4z"/>
<path d="M2400 1108 c0 -7 10 -14 21 -15 12 -1 20 -1 18 0 -2 2 -12 9 -21 16
-15 11 -18 11 -18 -1z"/>
<path d="M2560 1079 c0 -5 5 -7 10 -4 6 3 10 8 10 11 0 2 -4 4 -10 4 -5 0 -10
-5 -10 -11z"/>
<path d="M3976 1082 c-14 -13 -4 -21 24 -20 31 1 48 -7 37 -18 -3 -3 -36 -9
-73 -12 -40 -3 -75 -12 -87 -21 -73 -59 -71 -56 -57 -81 l13 -24 18 22 c10 13
21 22 26 21 4 -1 19 3 33 9 14 6 21 11 16 11 -5 1 -3 8 4 16 7 8 16 12 20 10
5 -3 26 1 47 9 21 8 49 17 63 20 14 3 34 12 45 20 19 15 18 15 -13 10 -22 -5
-38 -2 -50 8 -19 17 -58 29 -66 20z"/>
<path d="M3037 1053 c-34 -18 -32 -23 6 -16 15 3 27 12 27 19 0 8 -1 14 -2 13
-2 -1 -16 -8 -31 -16z"/>
<path d="M734 993 c-3 -10 -10 -29 -15 -43 -5 -14 -17 -79 -28 -145 -10 -66
-28 -158 -41 -205 -36 -140 -38 -151 -55 -250 -10 -52 -23 -129 -30 -170 -8
-41 -16 -99 -18 -127 l-4 -53 38 0 c44 0 37 -25 64 250 9 91 25 212 35 270 18
102 45 252 54 297 3 13 0 25 -5 29 -6 4 -6 11 2 20 6 8 12 43 13 79 2 66 0 78
-10 48z"/>
<path d="M3025 1000 c-3 -5 -1 -10 4 -10 6 0 11 5 11 10 0 6 -2 10 -4 10 -3 0
-8 -4 -11 -10z"/>
<path d="M272 982 c-9 -7 -8 -13 8 -27 11 -10 20 -14 21 -9 0 5 4 -1 9 -13 5
-13 16 -23 25 -23 25 0 72 27 79 46 9 22 0 30 -18 15 -8 -6 -18 -11 -22 -10
-5 1 -16 -1 -25 -5 -8 -4 -26 -2 -40 3 l-24 10 25 1 c23 1 23 2 5 10 -26 11
-28 11 -43 2z"/>
<path d="M3958 936 c-47 -14 -50 -18 -39 -50 7 -17 7 -26 1 -26 -6 0 -10 5
-10 10 0 6 -10 10 -22 10 -19 0 -20 2 -8 11 13 9 13 10 0 6 -8 -2 -14 -11 -14
-20 1 -14 -2 -15 -20 -5 -18 10 -19 9 -9 -4 10 -11 10 -17 1 -26 -9 -9 -5 -11
20 -8 18 2 35 -1 38 -6 3 -5 14 -1 23 9 34 39 83 104 80 107 -2 1 -21 -2 -41
-8z"/>
<path d="M2925 916 c-76 -75 -95 -104 -86 -129 12 -32 55 -41 77 -15 16 17 16
19 -2 33 -17 13 -17 14 -1 15 9 0 17 7 17 15 0 8 5 15 10 15 6 0 10 7 10 15 0
8 6 15 14 15 13 0 51 48 44 55 -2 3 -16 -2 -30 -9 -20 -11 -28 -11 -30 -2 -2
7 -10 4 -23 -8z m5 -36 c0 -5 -4 -10 -10 -10 -5 0 -10 5 -10 10 0 6 5 10 10
10 6 0 10 -4 10 -10z"/>
<path d="M3780 929 c0 -5 5 -7 10 -4 6 3 10 8 10 11 0 2 -4 4 -10 4 -5 0 -10
-5 -10 -11z"/>
<path d="M813 914 c-3 -8 -1 -20 6 -27 8 -8 11 -4 11 16 0 30 -7 35 -17 11z"/>
<path d="M2812 883 c-6 -2 -10 -8 -8 -11 2 -4 -7 -8 -21 -8 -29 -2 -52 -30
-53 -64 0 -24 1 -24 20 8 24 39 45 49 65 32 8 -7 16 -11 16 -9 1 2 3 16 5 32
3 27 0 30 -24 20z"/>
<path d="M4525 855 c-11 -14 -24 -25 -30 -25 -5 0 -39 -27 -75 -60 l-65 -61
24 -19 c19 -17 21 -21 7 -26 -9 -3 -16 -11 -16 -17 0 -19 69 55 115 123 24 36
54 76 65 88 13 14 16 22 8 22 -7 -1 -22 -12 -33 -25z"/>
<path d="M2951 841 c-9 -16 -8 -18 8 -14 12 3 17 11 14 19 -7 18 -10 18 -22
-5z"/>
<path d="M4054 803 c-13 -32 -28 -60 -33 -63 -4 -3 -20 -36 -35 -75 -15 -38
-31 -79 -36 -90 -20 -48 -40 -106 -38 -113 1 -4 -4 -18 -12 -32 -8 -14 -15
-29 -16 -35 -2 -5 -12 -41 -23 -78 -16 -53 -17 -68 -6 -64 14 6 29 -19 20 -33
-3 -5 4 -14 16 -20 12 -7 19 -8 15 -2 -3 5 3 17 14 27 15 13 17 21 9 31 -8 10
-5 11 12 7 18 -5 20 -3 14 16 -4 12 -2 21 4 21 6 0 11 12 11 27 0 25 1 25 19
9 18 -17 19 -16 27 16 13 56 13 59 -1 65 -12 4 -12 9 2 29 21 32 9 43 -20 18
-34 -29 -65 -45 -71 -35 -3 5 6 12 20 15 18 5 25 12 22 24 -3 10 1 23 8 30 7
7 11 19 8 27 -7 18 7 20 24 3 15 -15 15 -3 1 24 -9 16 -8 19 2 13 9 -6 11 -2
7 13 -4 12 -3 20 2 17 7 -5 25 71 21 90 -2 5 1 7 5 3 4 -4 13 0 20 10 18 23
17 35 -1 28 -23 -9 -18 7 10 28 13 10 22 22 19 27 -3 5 -1 9 4 9 16 0 25 52
10 61 -23 15 -28 10 -54 -48z m-64 -393 c0 -5 -10 -10 -22 -9 -22 0 -22 1 -3
9 11 5 21 9 23 9 1 1 2 -3 2 -9z m-40 -55 c0 -8 -2 -15 -4 -15 -2 0 -6 7 -10
15 -3 8 -1 15 4 15 6 0 10 -7 10 -15z"/>
<path d="M365 831 c-3 -5 -1 -12 4 -15 5 -3 11 1 15 9 6 16 -9 21 -19 6z"/>
<path d="M3875 810 c3 -5 8 -10 11 -10 2 0 4 5 4 10 0 6 -5 10 -11 10 -5 0 -7
-4 -4 -10z"/>
<path d="M2692 779 c-17 -27 -12 -31 12 -13 13 9 16 18 10 24 -6 6 -14 2 -22
-11z"/>
<path d="M2941 766 c-32 -51 -81 -78 -157 -84 -41 -3 -63 -9 -61 -16 2 -6 11
-10 21 -8 9 2 16 -4 16 -13 0 -8 5 -15 11 -15 6 0 9 7 5 15 -3 9 0 15 10 15 9
0 14 -5 12 -12 -2 -6 6 -22 19 -34 17 -17 22 -30 17 -48 -3 -14 -1 -27 6 -31
9 -5 10 -1 5 15 -5 15 -4 20 4 16 13 -9 15 -53 2 -61 -5 -3 -12 -1 -16 5 -3 5
-11 10 -17 10 -6 0 -3 -8 8 -19 10 -10 22 -17 26 -14 4 2 5 -3 2 -11 -6 -16 8
-26 91 -64 29 -13 38 -21 23 -17 -32 6 -38 -10 -7 -18 12 -3 18 -10 15 -16
-13 -20 14 -21 50 -1 25 15 50 20 83 18 l46 -3 3 -44 c2 -23 -2 -57 -7 -73 -8
-22 -8 -35 0 -44 8 -9 5 -13 -12 -16 -24 -3 -36 -38 -13 -38 8 0 14 -5 14 -10
0 -6 -6 -10 -12 -9 -25 3 -38 -1 -38 -12 0 -7 9 -9 21 -6 15 4 19 1 16 -11 -2
-9 -9 -16 -15 -14 -14 2 -16 -14 -3 -22 22 -14 103 132 99 178 -2 17 -8 30
-15 29 -16 -3 -12 35 5 42 7 2 10 1 7 -4 -3 -5 -1 -13 5 -16 9 -6 40 50 40 72
0 5 -19 7 -42 5 -78 -6 -176 48 -227 125 -37 56 -41 115 -11 182 23 51 25 84
6 100 -11 9 -18 5 -35 -23z m89 -386 c0 -5 -4 -10 -9 -10 -6 0 -13 5 -16 10
-3 6 1 10 9 10 9 0 16 -4 16 -10z m164 -124 c-3 -9 -10 -16 -15 -16 -14 0 -11
28 4 33 16 6 19 3 11 -17z"/>
<path d="M1494 778 c-16 -7 -25 -26 -34 -72 -7 -33 -20 -78 -30 -98 -19 -41
-9 -64 15 -32 10 14 16 16 27 7 8 -7 19 -8 28 -3 9 6 20 4 29 -3 7 -6 21 -12
30 -12 11 0 15 -8 13 -27 -3 -32 22 -44 63 -28 31 12 45 6 46 -18 0 -14 2 -13
9 3 4 11 4 24 -1 30 -17 18 -9 24 24 19 24 -5 14 3 -38 30 -97 51 -107 64
-116 137 -4 34 -13 65 -21 70 -16 10 -17 10 -44 -3z"/>
<path d="M2806 775 c-3 -8 -1 -15 4 -15 6 0 10 7 10 15 0 8 -2 15 -4 15 -2 0
-6 -7 -10 -15z"/>
<path d="M2790 740 c0 -5 5 -10 10 -10 6 0 10 5 10 10 0 6 -4 10 -10 10 -5 0
-10 -4 -10 -10z"/>
<path d="M3617 737 c-3 -7 3 -13 13 -13 10 0 16 6 13 13 -7 17 -19 17 -26 0z"/>
<path d="M2655 730 c-3 -5 -1 -10 4 -10 6 0 11 5 11 10 0 6 -2 10 -4 10 -3 0
-8 -4 -11 -10z"/>
<path d="M2472 698 c6 -18 28 -21 28 -4 0 9 -7 16 -16 16 -9 0 -14 -5 -12 -12z"/>
<path d="M2510 706 c0 -2 8 -10 18 -17 15 -13 16 -12 3 4 -13 16 -21 21 -21
13z"/>
<path d="M3598 683 c-6 -16 -16 -41 -24 -58 -22 -51 -60 -190 -53 -197 1 -2
-3 -13 -10 -25 -7 -15 -8 -23 -2 -23 6 0 13 -11 17 -25 6 -24 7 -24 30 -7 12
9 26 29 29 44 4 15 12 32 20 38 8 6 11 18 8 26 -3 8 0 14 6 14 6 0 10 3 9 8
-2 11 14 46 25 53 12 8 10 119 -3 153 -12 34 -37 33 -52 -1z"/>
<path d="M4203 600 c-31 -61 -47 -110 -58 -174 -16 -97 -19 -151 -6 -106 16
50 41 86 115 164 42 43 76 83 76 87 0 4 8 13 18 18 16 10 16 10 0 11 -10 0
-18 -5 -18 -12 0 -6 -8 -3 -20 7 -11 10 -18 21 -15 24 2 4 -5 7 -15 7 -10 0
-17 -3 -14 -7 2 -4 -5 -9 -17 -12 -16 -4 -18 -3 -9 8 6 8 10 26 8 42 -3 24 -9
17 -45 -57z"/>
<path d="M4326 662 c-14 -16 -14 -21 -2 -38 8 -10 18 -16 22 -11 4 4 2 7 -4 7
-17 0 -15 21 5 35 10 7 12 14 6 18 -6 4 -18 -2 -27 -11z"/>
<path d="M1092 608 c-7 -7 -12 -16 -12 -21 0 -5 7 -1 16 8 9 9 14 18 12 20 -2
3 -10 -1 -16 -7z"/>
<path d="M1460 562 c0 -13 7 -17 42 -26 22 -5 26 -3 21 9 -3 9 -12 14 -21 10
-8 -3 -21 0 -28 6 -9 8 -14 8 -14 1z"/>
<path d="M1935 550 c-4 -6 -3 -10 2 -10 4 0 8 -29 8 -65 0 -36 -4 -65 -9 -65
-5 0 10 -14 33 -31 56 -40 105 -97 108 -123 8 -82 17 -126 25 -126 5 0 6 5 2
12 -4 7 -3 8 4 4 6 -4 9 -13 6 -20 -7 -18 27 -30 38 -14 5 9 8 6 8 -9 0 -42
19 -24 26 24 4 27 11 59 15 71 8 21 3 30 -38 67 -28 25 -79 93 -123 163 -73
118 -93 141 -105 122z"/>
<path d="M1811 504 c0 -11 3 -14 6 -6 3 7 2 16 -1 19 -3 4 -6 -2 -5 -13z"/>
<path d="M4630 490 c0 -5 -8 -7 -17 -3 -14 5 -16 3 -6 -7 9 -10 19 -10 50 3
l38 16 -32 0 c-18 1 -33 -3 -33 -9z"/>
<path d="M1830 471 c0 -5 5 -13 10 -16 6 -3 10 -2 10 4 0 5 -4 13 -10 16 -5 3
-10 2 -10 -4z"/>
<path d="M4430 430 c-8 -5 -25 -7 -37 -4 -17 5 -25 -1 -37 -24 -17 -33 -43
-52 -101 -71 -58 -19 -77 -41 -123 -139 -44 -94 -63 -192 -39 -192 8 0 20 13
27 29 13 33 225 253 283 295 22 16 37 35 37 48 0 15 5 19 20 15 12 -3 17 -1
14 5 -3 5 4 12 15 15 12 3 20 10 18 16 -4 14 -58 19 -77 7z m-35 -90 c-16 -11
-38 -20 -48 -20 -10 0 -38 -21 -62 -46 -37 -37 -46 -43 -51 -29 -6 16 7 29 61
62 74 45 162 74 100 33z m-165 -114 c0 -8 -4 -18 -10 -21 -5 -3 -10 3 -10 14
0 12 5 21 10 21 6 0 10 -6 10 -14z m-30 -46 c0 -5 -5 -10 -11 -10 -5 0 -7 5
-4 10 3 6 8 10 11 10 2 0 4 -4 4 -10z"/>
<path d="M3620 360 c0 -5 5 -10 10 -10 6 0 10 5 10 10 0 6 -4 10 -10 10 -5 0
-10 -4 -10 -10z"/>
<path d="M3983 294 c-7 -7 -9 -15 -5 -17 4 -3 13 1 19 9 7 7 9 15 5 17 -4 3
-13 -1 -19 -9z"/>
<path d="M3540 289 c0 -5 4 -8 9 -4 12 7 24 -31 15 -47 -5 -10 -4 -10 6 -1 11
10 11 18 2 38 -12 25 -32 34 -32 14z"/>
<path d="M3448 238 c-16 -5 -28 -17 -28 -25 0 -13 3 -13 15 -3 11 9 15 9 15 1
0 -6 -12 -16 -26 -21 -14 -6 -24 -16 -22 -22 3 -7 -1 -33 -9 -57 -15 -52 -17
-95 -3 -86 6 3 10 14 10 24 0 10 9 26 20 36 14 13 17 21 9 31 -7 8 -7 14 1 19
6 3 8 11 4 16 -3 6 4 13 16 16 17 4 20 11 16 29 -4 13 -2 24 3 24 5 0 11 7 15
15 6 17 2 17 -36 3z"/>
<path d="M3841 224 c0 -11 3 -14 6 -6 3 7 2 16 -1 19 -3 4 -6 -2 -5 -13z"/>
<path d="M3530 195 c0 -33 15 -33 16 0 1 14 -2 25 -7 25 -5 0 -9 -11 -9 -25z"/>
<path d="M3815 191 c-6 -11 9 -23 19 -14 9 9 7 23 -3 23 -6 0 -12 -4 -16 -9z"/>
<path d="M3060 90 c0 -5 4 -10 9 -10 6 0 13 5 16 10 3 6 -1 10 -9 10 -9 0 -16
-4 -16 -10z"/>
<path d="M3010 58 c-25 -41 -25 -58 -1 -58 15 0 20 9 23 45 2 25 2 45 0 45 -1
0 -11 -15 -22 -32z"/>
<path d="M2080 58 c0 -7 -3 -23 -6 -36 -5 -17 -3 -21 8 -17 15 6 20 65 6 65
-5 0 -8 -6 -8 -12z"/>
<path d="M2156 45 c-3 -9 -6 -22 -5 -28 0 -7 5 -1 10 12 5 13 8 26 5 28 -2 2
-6 -3 -10 -12z"/>
<path d="M4340 19 c-30 -16 -32 -18 -12 -19 13 0 30 7 39 15 22 23 13 24 -27
4z"/>
<path d="M4680 29 c-30 -5 -79 -10 -109 -13 -81 -7 -73 -15 15 -15 49 1 100 8
134 19 59 19 47 22 -40 9z"/>
</g>
</svg>
